<?xml version="1.0" encoding="UTF-8" standalone="no"?>
<!-- Created with Inkscape (http://www.inkscape.org/) -->

<svg
   xmlns:dc="http://purl.org/dc/elements/1.1/"
   xmlns:cc="http://creativecommons.org/ns#"
   xmlns:rdf="http://www.w3.org/1999/02/22-rdf-syntax-ns#"
   xmlns:svg="http://www.w3.org/2000/svg"
   xmlns="http://www.w3.org/2000/svg"
   xmlns:sodipodi="http://sodipodi.sourceforge.net/DTD/sodipodi-0.dtd"
   xmlns:inkscape="http://www.inkscape.org/namespaces/inkscape"
   id="svg2"
   version="1.1"
   inkscape:version="0.91 r13725"
   xml:space="preserve"
   width="720"
   height="945"
   viewBox="0 0 720 945"
   sodipodi:docname="Page_3.svg"><metadata
     id="metadata8"><rdf:RDF><cc:Work
         rdf:about=""><dc:format>image/svg+xml</dc:format><dc:type
           rdf:resource="http://purl.org/dc/dcmitype/StillImage" /><dc:title></dc:title></cc:Work></rdf:RDF></metadata><defs
     id="defs6" /><sodipodi:namedview
     pagecolor="#ffffff"
     bordercolor="#666666"
     borderopacity="1"
     objecttolerance="10"
     gridtolerance="10"
     guidetolerance="10"
     inkscape:pageopacity="0"
     inkscape:pageshadow="2"
     inkscape:window-width="1680"
     inkscape:window-height="998"
     id="namedview4"
     showgrid="false"
     inkscape:zoom="0.95353535"
     inkscape:cx="138.63037"
     inkscape:cy="700.45021"
     inkscape:window-x="1272"
     inkscape:window-y="-8"
     inkscape:window-maximized="1"
     inkscape:current-layer="g10" /><g
     id="g10"
     inkscape:groupmode="layer"
     inkscape:label="LCR-1023AFORPD"
     transform="matrix(1.25,0,0,-1.25,0,945)"><g
       id="g3364"
       transform="translate(-23.07538,-6.395586)"><text
         id="text12"
         style="font-variant:normal;font-weight:normal;font-stretch:normal;font-size:9.96000004px;font-family:'Times New Roman';-inkscape-font-specification:Times-Roman;writing-mode:lr-tb;fill:#000000;fill-opacity:1;fill-rule:nonzero;stroke:none"
         transform="matrix(1,0,0,-1,36,742.68)"><tspan
           id="tspan14"
           sodipodi:role="line"
           y="0"
           x="0 6.1154399 11.1552 16.075439 20.515608 23.275524 26.512524 33.712608 38.752369 43.79213 48.831886 52.191395 54.951313 59.871552 64.791794 67.551704 70.432137 75.231865 78.468864 84.708801 92.388962 97.428719 100.18864 105.34892 110.14964 114.58881 117.94931 120.82974 126.46909 129.82959 134.86935 139.7896 143.14911 147.58928 155.1499 158.50941 161.86992 165.10692 172.30701 177.22624 182.267 186.70717 190.06668 193.30368 199.54362 202.30254 205.06146 207.82037 212.26054 216.10013 219.33713 226.53722 229.89772 233.13472 237.57489 242.49512 247.53488 250.77188 257.97195 261.33246 264.69199 267.81244 272.8522 276.09219 279.32919 282.0881 287.00836 291.44852 294.68552 301.28601 304.16547 309.08569 311.8446 314.60355 317.84055 324.44003 327.32047 332.36023 337.28046 340.03937 343.87994 347.23947 354.32004 358.76019 361.5191 364.87863 369.9184 373.15839 376.39539 381.43613 386.47589 391.51566 396.43588 399.67288 402.91287 409.15381 411.91272 414.67166 417.43057 421.87073 425.10773 432.30783 435.66833 438.90533 446.58548 449.82248 457.02258 460.38208 463.74258 466.98257 469.50244 472.73944 477.17963 482.09985 487.02011 490.25711 493.01602 497.93625 502.37543 505.61243 512.81354 520.49268 524.93286 528.29333 531.05225 535.49243 540.05212 544.97235 548.93243">Equal Opportunity Employer/Program • Under Titles VI and VII of the Civil Rights Act of 1964 (Title VI &amp; VII), and the Americans </tspan><tspan
           id="tspan16"
           sodipodi:role="line"
           y="11.52372"
           x="0 7.080564 9.8394842 12.71892 17.63916 20.398081 27.598164 30.357084 34.197659 38.637829 43.677589 46.436508 49.31694 52.075859 54.834782 57.5937 62.033867 65.874443 68.754875 75.834442 80.274612 83.033531 85.79245 90.832214 94.072197 96.831123 101.87088 106.91064 111.95139 116.99116 119.63155 122.99106 130.07162 137.39124 144.47179 147.8313 150.35118 153.11011 158.63092 163.07109 167.51027 170.27118 173.0311 178.07086 182.99109 185.75002 190.78978 195.82953 200.86929 203.62822 208.66797 211.90796 214.66689 217.4268 222.34705 226.7872 229.54613 236.14662 240.58679 245.50703 249.9462 254.98596 257.74588 260.5058 263.26572 266.02563 270.46579 273.22571 275.98563 281.1459 286.06613 288.82507 295.90463 300.34479 303.10471 305.86362 310.90338 314.14337 316.90231 321.94205 326.98181 332.02158 337.06134 339.58121 342.34015 345.10007 350.02029 354.46045 357.10086 364.30093 369.22119 373.66135 376.42026 383.62036 386.38028 390.21985 394.66003 398.02054 400.89996 408.58011 411.46054 416.37979 420.81995 423.57986 426.33978 431.37955 436.2998 439.17923 446.2598 450.69995 453.45987 456.21881 461.25854 464.49854 467.25748 472.29721 477.33698 482.37674 487.4165 489.93738 492.69629 497.13647 502.05573 507.09546 509.73486 515.97479 518.73474 521.49567 524.28442 528.60406 531.36304 534.72351 537.96051 540.71942 545.75922 548.99622">with Disabilities Act of 1990 (ADA), Section 504 of the Rehabilitation Act of 1973, the Age Discrimination Act of 1975, and Title II of </tspan><tspan
           id="tspan18"
           sodipodi:role="line"
           y="23.04744"
           x="0 2.75892 7.6791601 12.119328 16.322449 23.522532 27.9627 32.882938 37.322113 40.081032 42.839951 47.280121 51.483238 54.843742 59.883503 63.123493 68.164246 71.644272 79.203911 83.764595 86.523514 89.282433 94.322197 99.242439 103.44556 110.64564 115.6854 120.72616 125.76591 128.52484 132.36542 136.80557 140.16508 143.04552 150.60516 153.4836 158.40384 162.84401 165.60393 168.36385 173.40359 178.32384 182.64449 189.72406 194.16423 196.92413 201.12726 204.48677 211.68686 215.04736 222.36696 229.44753 232.80704 237.01015 242.04991 245.29089 249.49402 254.53378 259.57355 264.61328 269.65305 272.40601 276.60913 279.36804 284.28827 288.72845 292.93158 300.13165 304.57181 309.61157 314.05176 317.41125 320.17017 327.72983 332.16998 337.09021 339.84915 344.05228 349.09201 352.45251 357.49228 362.53204 365.29095 370.33173 373.09064 375.84958 379.69016 383.89325 388.93402 391.69293 395.5325 399.97269 403.33319 406.21362 413.77325 416.65369 421.57294 426.01309 428.77203 431.53094 436.69022 441.61047 445.8136 448.57251 453.49274 457.69586 462.13602 467.2963 474.85596 477.61487 481.57495 485.41553 488.17447 493.21423 498.13446 501.97504 504.4949 508.69803 513.73779 517.09833 522.13806 527.05829 530.41779 534.97852 542.53815 546.37872 549.01813">the Genetic Information Nondiscrimination Act (GINA) of 2008; the Department prohibits discrimination in admissions, programs, </tspan><tspan
           id="tspan20"
           sodipodi:role="line"
           y="34.571159"
           x="0.0099600004 3.84954 8.2897081 11.650212 16.570452 19.329372 23.769541 28.209707 32.04929 34.569168 38.891808 43.331978 47.772144 50.531063 53.4105 58.330742 61.089661 63.848579 66.607498 71.167191 75.007767 77.527641 81.850281 86.891037 90.250549 94.573189 99.01236 106.573 111.61275 114.37167 119.41243 124.33267 132.01183 136.57251 141.49275 144.25168 148.57431 153.61507 158.05524 161.89482 166.33499 171.37474 175.69739 180.73715 185.65739 189.98003 193.34053 197.7807 202.22087 206.66003 209.18092 213.50356 217.94373 222.98349 225.7424 230.66264 234.02315 236.54303 240.74316 244.10367 248.54283 251.30176 254.06067 258.98093 261.73984 266.7796 271.69983 274.21973 278.54236 282.38193 286.94162 291.86188 294.38174 298.70438 303.62463 308.06479 310.8237 313.58264 318.62241 323.54263 328.1033 330.86224 335.18488 340.22464 343.58514 346.34406 351.26431 354.02322 358.94345 361.58386 365.90649 370.34665 375.26691 379.70706 382.22696 386.54959 391.59036 394.34927 398.18884 402.62903 407.66876 410.4277 413.18661 415.94553 418.82596 423.6257 426.14557 430.4682 435.38745 439.82764 444.74786 449.30856 452.06747 454.82639 459.26657 463.10614 467.42877 471.86896 476.78818 481.94846 486.27112 489.61368 494.05383 496.81277 501.25293 504.01184 506.77078 511.21094 513.96985 516.72876 521.76855 526.68878 529.20868 533.53131 539.77124 544.69147 549.01215">services, activities, or employment based on race, color, religion, sex, national origin, age, disability, genetics and retaliation. The </tspan><tspan
           id="tspan22"
           sodipodi:role="line"
           y="46.094879"
           x="0.0099600004 7.2100439 11.652204 16.691963 21.134125 24.493631 27.374063 34.933704 39.375862 44.296104 47.056019 49.815937 57.496094 62.535851 66.376427 69.136345 71.896263 79.576416 84.136101 89.056343 93.498505 96.137901 100.58006 103.21947 106.57897 111.02113 115.46329 119.30287 124.34363 129.26288 133.70503 138.7448 141.50471 145.94687 148.58627 153.02843 157.47058 161.91275 166.95351 174.63367 182.31381 187.35358 192.39334 196.83549 199.59541 202.35533 207.39508 212.31532 214.95473 217.71465 222.75441 225.3938 229.83597 232.59589 235.3568 240.51607 247.59663 250.23604 254.67819 257.3176 262.35736 266.79953 270.15903 273.9996 279.03937 283.95959 286.71951 293.80008 296.56 299.43942 304.35968 306.99908 311.44122 314.08063 319.12039 321.88031 325.72089 330.16306 335.20279 337.96271 340.72263 343.48254 346.36298 351.16272 353.92264 356.68253 361.72229 364.36169 367.12161 371.56378 376.48401 380.92618 383.56558 388.60535 393.04749 396.40799 399.16791 401.80731 404.56723 409.48648 412.12589 416.56802 419.20743 424.2482 427.6077 432.64746 437.56769 440.92819 445.37036 452.931 455.45087 458.09027 461.92987 466.37201 469.85205 474.77228 477.5322 482.09189 486.53406 489.17346 494.2132 497.57272 500.21213 504.65427 509.09644 511.81451 514.57343 519.49365 522.25262 525.13306 529.93274 532.45264 535.09204 540.61188 545.65265 549.01215">Department must make a reasonable accommodation to allow a person with a disability to take part in a program, service or activity. For </tspan><tspan
           id="tspan24"
           sodipodi:role="line"
           y="57.499081"
           x="0.0099600004 4.4521198 9.3723602 13.932048 21.491688 26.532444 29.29236 33.73452 36.254398 40.816078 43.69651 48.615757 51.375671 55.216248 59.896454 67.576607 72.018768 76.579453 81.499695 85.339272 89.900955 92.781387 96.02137 100.58305 105.50329 109.94545 114.38761 118.9473 122.78787 126.62746 131.06961 134.54964 139.34937 141.86925 146.43092 149.31036 154.23061 158.67276 163.23444 170.43452 174.87668 179.91644 184.3586 187.7191 190.59854 198.15918 202.71887 207.63911 210.39902 215.07922 222.75938 227.79915 231.63872 234.39864 239.07884 244.11861 247.47911 252.51888 257.43912 260.19904 265.23877 269.68094 274.24261 278.08319 280.84311 285.76337 290.68259 295.24429 298.00418 302.56387 307.60464 312.5239 317.44412 322.00381 326.92404 331.36621 335.92789 338.80832 343.72858 346.48849 350.93063 354.29016 359.3299 362.6904 367.13257 369.89249 374.33466 377.69415 381.53473 386.09641 389.3364 394.37616 397.73666 402.29834 407.33911 411.78125 416.82202 421.86179 424.6217 429.06384 433.62552 440.70609 445.62534 450.66611 455.22778 459.66992 463.02945 467.47162 472.03329 477.07306 481.3927 485.83487 489.07483 491.59473 496.1564 500.59857 505.27878 512.35931 517.27856 521.72076 526.1629 528.92279 533.48352 538.40375 542.84589 545.60583 549.00519">example, this means if necessary, the Department must provide sign language interpreters for people who are deaf, a wheelchair </tspan><tspan
           id="tspan26"
           sodipodi:role="line"
           y="69.022797"
           x="0.0099600004 4.4521198 8.8942804 13.33644 17.778601 21.619177 25.458755 28.218672 33.259426 36.019344 40.461506 42.981384 45.741299 50.781059 55.223221 59.665379 62.425297 65.185211 70.224976 75.14521 77.665092 80.184975 85.224731 88.585236 91.105118 95.547279 100.46652 103.22743 107.66959 111.0301 115.95033 120.51003 125.54978 128.06966 133.11041 136.46992 139.22984 144.15009 146.91 149.5504 157.11003 161.5522 164.31212 168.75427 172.11378 174.8737 179.31586 182.07578 185.91635 188.43623 190.9561 194.31561 197.07553 199.59541 204.03757 206.79749 210.63806 215.67783 218.31822 225.99838 230.44054 234.88269 239.92245 243.76303 246.28291 249.04283 253.96307 258.40524 261.16513 263.68503 266.56445 271.48471 275.92685 278.44675 285.64682 290.08899 295.12875 299.57089 302.93042 305.81085 313.37048 317.93118 322.85141 325.61133 328.25073 335.3313 338.09122 340.97064 343.73056 346.25043 349.01035 353.45251 358.49326 362.93542 365.45532 369.89746 374.93823 379.73795 382.25784 387.29758 390.17801 395.09827 399.54041 402.90091 405.42081 408.7803 413.22247 417.66464 421.50522 426.54498 431.46521 435.90738 440.94812 443.70804 448.15021 450.67007 455.11224 459.55441 462.31531 465.07523 470.11499 475.03522 477.55511 480.43454 485.3548 489.79694 492.55588 495.07574 499.5159 502.27484 505.03375 510.19403 517.2746 521.1142 523.75458 528.55432 533.71454 538.63483 541.15466 543.91364 549.07391">accessible location, or enlarged print materials. It also means that the Department will take any other reasonable action that allows you to </tspan><tspan
           id="tspan28"
           sodipodi:role="line"
           y="80.546516"
           x="0.0099600004 2.769876 7.2100439 12.130284 16.569456 19.208857 24.248615 28.688784 32.04929 34.809204 37.448605 40.208519 45.128761 47.768162 52.328842 57.249084 62.288845 64.928246 69.969002 74.889236 79.929993 84.369171 87.729675 91.569252 94.32917 98.888855 103.8091 108.84885 111.48826 115.92842 118.56783 123.60858 126.96809 132.00784 136.92809 140.2876 144.72777 152.28841 154.9278 159.96756 163.32806 165.96747 170.40764 174.84779 177.60771 180.48814 185.40839 188.1693 191.04874 195.96898 198.48886 201.12825 203.88817 208.80841 213.36909 216.12802 221.04826 226.08801 228.96844 233.88869 238.92845 241.68837 249.248 253.80869 258.72894 261.48883 266.5296 271.44983 274.08923 277.44876 281.88892 286.32907 290.16867 295.32895 300.24918 304.68936 309.7291 312.48901 316.9292 319.5686 324.00876 328.92899 333.48868 338.40894 343.32916 347.88885 351.72842 354.36783 357.24728 362.28802 364.92743 369.36758 374.28784 376.92624 381.36639 385.80658 388.56549 391.3244 396.36517 399.12408 402.00354 406.80426 409.32413 411.96353 415.44354 418.68454 421.44345 426.24319 431.40344 436.3237 438.9631 444.00385 448.44403 451.20294 453.96185 458.40204 463.32227 467.76245 470.52136 473.28027 478.32004 482.76019 485.51913 488.27805 493.07877 498.11853 503.03876 505.7977 512.87823 515.75769 518.5166 521.27551 524.03442 528.95367 533.99445 536.75336 539.39374 544.43353 548.99323">take part in and understand a program or activity, including making reasonable changes to an activity. If you believe that you will not be </tspan><tspan
           id="tspan30"
           sodipodi:role="line"
           y="92.070236"
           x="0.0099600004 4.4501281 9.4898882 12.249804 16.689972 19.329372 22.089289 27.129047 29.768448 34.808208 39.728447 44.768208 49.208378 52.568878 56.408459 59.168377 63.608543 68.528786 73.568542 76.207947 81.247704 84.607208 87.246613 90.006531 94.567215 99.486458 103.92662 106.56602 111.60578 116.04595 119.40546 122.28589 124.92529 127.68521 132.72498 135.36436 139.80354 142.44295 147.4827 150.8432 155.88297 160.80321 164.1627 168.72339 176.40355 179.04295 184.08272 187.44221 190.08162 194.52179 198.96095 201.72087 204.48178 209.52155 212.28146 215.1619 220.08115 222.72054 227.7603 232.20047 236.64064 241.08081 246.00104 249.84062 254.28079 256.9202 262.07947 265.31946 268.07938 272.9996 278.03937 282.95862 286.31912 288.95853 293.99829 296.87772 300.71829 305.15848 310.19821 312.95813 315.71805 318.47797 321.3584 326.15814 328.79852 331.43793 336.47769 339.23761 343.67776 348.11795 351.95752 356.39767 359.15759 362.03802 366.47821 369.23813 371.8775 376.91727 380.75784 383.51776 388.43802 393.35825 398.51752 405.59808 408.23749 413.39777 416.63776 419.39767 424.3179 429.35767 434.27792 437.75793 440.39734 445.4371 448.19702 452.0376 456.47775 461.51752 464.27744 467.03735 469.79727 472.6777 477.59793 480.35785 485.2771 489.73318 494.17535 499.21512 503.05569 505.6951 508.57553 513.49579 516.13519 520.57733 525.73761 530.65784 535.09998 540.02026 544.4624 549.02209">able to understand or take part in a program or activity because of your disability, please let us know of your disability needs in advance </tspan><tspan
           id="tspan32"
           sodipodi:role="line"
           y="103.59396"
           x="0.0099600004 2.7688799 6.0088682 9.2458677 13.686036 16.566467 19.803469 24.243635 27.002556 29.761477 32.998474 38.03923 43.078991 46.918571 50.759148 53.518066 58.557827 61.31675 65.756912 68.276794 71.513794 77.753738 82.793495 86.030495 89.390999 93.831169 98.870926 103.79117 108.23134 112.07092 114.82983 118.06683 120.94727 125.86751 128.62643 132.466 135.703 140.74376 145.78352 150.22369 155.26346 162.9436 167.5033 172.42354 175.18245 178.54295 181.30188 186.22212 189.45912 194.01881 196.77773 199.53665 203.97682 207.33632 212.25656 216.69673 219.45566 222.33609 227.25533 231.6955 235.056 238.29599 243.45627 246.93629 254.49593 258.9361 261.69501 264.93201 269.97278 273.37213 276.60913 279.84912 284.88885 288.24936 291.60889 294.84888 299.7691 303.12961 306.00903 310.92929 315.36945 318.72995 321.96695 324.84641 329.88617 333.12613 338.16589 341.64594 349.20557 353.64572 356.40564 359.16556 364.32584 369.24609 372.48309 376.92325 381.96301 387.00278 391.923 394.68292 397.91992 400.80035 405.72061 408.60004 412.44061 415.67761 420.71738 425.75714 428.51706 431.27698 435.83765 440.63736 443.1702 446.4072 450.84937 456.00964 460.92987 463.68878 468.12897 472.56912 475.32806 478.68756 483.7283 488.76807 493.68832 497.04782 500.28482 503.04373 508.0845 512.52466 516.96484 519.72375 522.96075 528.00049 531.36102 534.60101 537.35992 541.80011 546.24622 549.00519">if at all possible. To request this document in alternative format or for further information about this policy, contact your local office; </tspan><tspan
           id="tspan34"
           sodipodi:role="line"
           y="114.99816"
           x="0.0099600004 6.129384 12.37032 19.5714 22.211796 28.451736 35.652817 42.853897 47.415577 52.93541 57.375576 60.735085 65.655327 68.415237 72.855408 77.294579 81.135155 83.895073 88.456749 93.614037 96.851044 101.8908 105.1278 110.16756 112.68744 117.36864 120.84468 125.40636 130.92619 134.2867 138.72885 143.17102 147.7327 150.49261 154.93477 159.96756 165.00732 169.92757 174.36772 179.28796 183.84766 188.40337 192.84552 196.6851 200.6452 203.40511 207.24568 210.0056 214.56529 219.48553 223.92769 228.36986 233.04408 236.28407 241.32382 244.68433 249.24602 256.44611 262.56653 268.08633 272.64804 276.48862 280.93076 284.29126 289.33102 292.09094 296.53311 300.97525 304.81485 309.37653 312.25497 316.0806 320.64227 325.20197 330.12222 334.56436 337.32428 340.0842 344.52637 349.56613 352.32605 356.76819 361.44839 366.36865 371.40839 376.44815 381.36841 385.93008 389.28958 393.73175 398.77151 403.69174 408.13391 412.09399 414.85391 417.36383 422.04504 425.40155 429.96323 437.16333 440.04276 443.88333 448.9231 453.96286 458.88211 461.64203 466.68176 469.44168 473.88187 478.44354 483.00323 487.92346 492.48514 496.92532 500.7659 505.80566 510.36633 515.28558 520.32532 523.08527 527.64691 532.0871 537.12689 541.68854 544.44849 549.00812">TTY/TDD Services: 7-1-1. • Free language assistance for DES services is available upon request. • Disponible en español en la </tspan><tspan
           id="tspan36"
           sodipodi:role="line"
           y="126.52188"
           x="0 5.0397601 8.279748 11.038668 15.478836 18.237757 23.157 27.597168 30.117048 32.875969 37.91573 42.355896 46.796062 49.554985 52.200359">oficina local. </tspan></text>
</g></g></svg>