<?xml version="1.0" encoding="UTF-8" standalone="no"?>
<!-- Created with Inkscape (http://www.inkscape.org/) -->

<svg
   xmlns:dc="http://purl.org/dc/elements/1.1/"
   xmlns:cc="http://creativecommons.org/ns#"
   xmlns:rdf="http://www.w3.org/1999/02/22-rdf-syntax-ns#"
   xmlns:svg="http://www.w3.org/2000/svg"
   xmlns="http://www.w3.org/2000/svg"
   xmlns:sodipodi="http://sodipodi.sourceforge.net/DTD/sodipodi-0.dtd"
   xmlns:inkscape="http://www.inkscape.org/namespaces/inkscape"
   id="svg2"
   version="1.1"
   inkscape:version="0.91 r13725"
   xml:space="preserve"
   width="8in"
   height="2.5in"
   viewBox="0 0 720 225"
   sodipodi:docname="Page_2.svg"><metadata
     id="metadata8"><rdf:RDF><cc:Work
         rdf:about=""><dc:format>image/svg+xml</dc:format><dc:type
           rdf:resource="http://purl.org/dc/dcmitype/StillImage" /><dc:title></dc:title></cc:Work></rdf:RDF></metadata><defs
     id="defs6" /><sodipodi:namedview
     pagecolor="#ffffff"
     bordercolor="#666666"
     borderopacity="1"
     objecttolerance="10"
     gridtolerance="10"
     guidetolerance="10"
     inkscape:pageopacity="0"
     inkscape:pageshadow="2"
     inkscape:window-width="1680"
     inkscape:window-height="998"
     id="namedview4"
     showgrid="false"
     units="in"
     inkscape:zoom="1.3485026"
     inkscape:cx="446.3638"
     inkscape:cy="177.63106"
     inkscape:window-x="1272"
     inkscape:window-y="-8"
     inkscape:window-maximized="1"
     inkscape:current-layer="g10" /><g
     id="g10"
     inkscape:groupmode="layer"
     inkscape:label="LCR-1000BFORFF"
     transform="matrix(1.25,0,0,-1.25,0,225)"><g
       id="g3466"
       transform="translate(-18.376126,-583.5023)"><text
         id="text12"
         style="font-variant:normal;font-weight:normal;font-size:9.47999954px;font-family:'Times New Roman';-inkscape-font-specification:'Times New';writing-mode:lr-tb;fill:#000000;fill-opacity:1;fill-rule:nonzero;stroke:none"
         transform="matrix(1,0,0,-1,36,744.12)"><tspan
           id="tspan14"
           sodipodi:role="line"
           y="0"
           x="0 5.7638402 10.55124 15.33864 19.54776 22.183201 25.169399 32.013962 36.801361 41.484482 46.271881 49.3908 52.026241 56.82312 61.610519 64.245956 67.004639 71.441277 74.427483 80.191322 87.50988 92.297279 94.932716 99.843361 104.40324 108.61236 111.7218 114.471 119.86512 122.98404 127.77144 132.45456 135.57349 139.88689 147.20544 150.19164 153.43381">Equal Opportunity Employer/Program • </tspan></text>
<text
         id="text16"
         style="font-variant:normal;font-weight:normal;font-size:9.47999954px;font-family:'Times New Roman';-inkscape-font-specification:Times-Roman;writing-mode:lr-tb;fill:#000000;fill-opacity:1;fill-rule:nonzero;stroke:none"
         transform="matrix(1,0,0,-1,192.62,744.12)"><tspan
           id="tspan18"
           sodipodi:role="line"
           y="0"
           x="0 6.8445601 11.63196 16.419359 20.628481 23.737921 26.847361 32.487961 35.123402 37.758839 40.394279 44.603401 48.319561 51.305759 58.254601 61.250278 64.236481 68.445602 73.223518 78.010918 80.997124 87.945961 91.06488 94.060562 97.046761 101.83416 105.06684 108.05304 110.68848 115.48536 119.69448 122.6712 129.0228 131.65823 136.34135 138.97681 141.61224 144.60793 150.95952 153.59496 158.27808 163.06548 165.70091 169.41708 172.40327 179.24783 183.45695 186.09241 188.95535 193.74277 196.86168 199.73412 204.52151 209.30891 213.99203 218.77943 221.76564 224.88457 230.52516 233.1606 235.79604 238.43147 242.64059 245.63628 252.58511 255.5808 258.69025 266.00879 268.995 275.94385 279.06277 282.18167 285.3006 287.68958">Under Titles VI and VII of the Civil Rights Act of 1964 (Title VI &amp; VII), </tspan></text>
<text
         id="text20"
         style="font-variant:normal;font-weight:normal;font-size:9.47999954px;font-family:'Times New Roman';-inkscape-font-specification:Times-Roman;writing-mode:lr-tb;fill:#000000;fill-opacity:1;fill-rule:nonzero;stroke:none"
         transform="matrix(1,0,0,-1,483.82,744.12)"><tspan
           id="tspan22"
           sodipodi:role="line"
           y="0"
           x="0 4.2091198 8.9870396 13.77444 16.760639 19.39608 24.192961 28.402081 31.265039 38.1096 45.428162 49.63728 52.746719 55.38216 59.69556 63.904678 68.682602 72.389282 75.375481 82.220039 84.855476 87.490921 92.174042">and the Americans with </tspan></text>
<text
         id="text24"
         style="font-variant:normal;font-weight:normal;font-size:9.47999954px;font-family:'Times New Roman';-inkscape-font-specification:Times-Roman;writing-mode:lr-tb;fill:#000000;fill-opacity:1;fill-rule:nonzero;stroke:none"
         transform="matrix(1,0,0,-1,36,733.2)"><tspan
           id="tspan26"
           sodipodi:role="line"
           y="0"
           x="0 6.8445601 9.4799995 13.18668 17.3958 22.173719 24.80916 27.444599 30.08004 32.715481 35.350922 39.56004 43.285679 46.878601 53.72316 57.932281 60.567719 64.151161 68.93856 72.171242 75.640923 80.428322 85.215721 89.898842 94.686241 98.27916 101.39808 108.24264 115.0872 121.93176 125.0412 127.43016">Disabilities Act of 1990 (ADA), </tspan></text>
<text
         id="text28"
         style="font-variant:normal;font-weight:normal;font-size:9.47999954px;font-family:'Times New Roman';-inkscape-font-specification:Times-Roman;writing-mode:lr-tb;fill:#000000;fill-opacity:1;fill-rule:nonzero;stroke:none"
         transform="matrix(1,0,0,-1,167.18,733.2)"><tspan
           id="tspan30"
           sodipodi:role="line"
           y="0"
           x="0 5.2708802 9.4799995 13.68912 16.32456 18.959999 23.7474 28.5348 32.12772 36.915119 41.59824 46.385639 49.978561 54.661678 57.89436 61.487282 64.122719 68.919601 73.128723 76.712158 83.063759 87.272881 92.050797 96.127197 100.9146 103.55004 106.18548 108.82092 111.35208 115.5612 118.19664 120.83208 125.61948 130.40688 133.9998 140.84436 145.05348 147.68892 151.27235 156.05975 159.29243 162.76212 167.54951 172.23264 177.02003 181.80743 184.1964 187.78932 190.311 195.0984 199.30753 202.89096 209.73552 214.40916 218.61829 222.20172 229.04628 231.79549 235.50217 239.71127 242.82072 245.45616 252.78419 255.41965 260.21652 264.42563 267.06107 269.69653 274.48392 279.27133 282.86423 289.7088 293.91791 296.55338 300.13681 304.92419 308.15689 311.74979 316.43292 321.22031 325.90344 330.69083 333.0798 336.67273 340.88184 345.55548 350.34286 353.81256 359.45316 362.08859 364.72403 367.35947 371.5686 375.28476 378.40369 381.52261 385.11551 389.90292 393.13559 396.72852 399.36395 404.16083 408.36996">Section 504 of the Rehabilitation Act of 1973, the Age Discrimination Act of 1975, and Title II of the </tspan></text>
<text
         id="text32"
         style="font-variant:normal;font-weight:normal;font-size:9.47999954px;font-family:'Times New Roman';-inkscape-font-specification:Times-Roman;writing-mode:lr-tb;fill:#000000;fill-opacity:1;fill-rule:nonzero;stroke:none"
         transform="matrix(1,0,0,-1,36,722.28)"><tspan
           id="tspan34"
           sodipodi:role="line"
           y="0"
           x="0 6.8445601 11.05368 15.8316 20.04072 22.676161 25.3116 29.52072 33.34116 36.336842 41.124241 44.356918 49.144321 52.263241 59.581799 63.79092 66.426361 69.061798 73.849197 78.636597 82.343277 89.187843 93.975243 98.658363 103.44576 106.0812 109.79736 114.00648 117.11592 119.75136 127.0794 129.71484 134.51172 138.72084 141.35628 143.99171 148.77911 153.56651 157.27319 164.11777 168.32687 170.96233 174.65952 177.77844 184.72728 187.72296 194.56752 201.51636 204.63528 208.34196 213.12936 216.36205 220.06873 224.85612 229.53925 234.32664 239.11404">Genetic Information Nondiscrimination Act (GINA) of 2008;</tspan></text>
<text
         id="text36"
         style="font-variant:normal;font-weight:normal;font-size:9.47999954px;font-family:'Times New Roman';-inkscape-font-specification:Times-Roman;writing-mode:lr-tb;fill:#000000;fill-opacity:1;fill-rule:nonzero;stroke:none"
         transform="matrix(1,0,0,-1,281.69,722.28)"><tspan
           id="tspan38"
           sodipodi:role="line"
           y="0"
           x="0 2.6354401 7.4323201 11.64144 15.33864 22.183201 26.392321 31.17024 35.37936 38.4888 41.124241 48.452278 52.6614 57.43932 60.07476 63.79092 68.578323 71.697243 76.484642 81.272041 83.907478 88.704361 91.339798 93.975243 97.691399 101.39808 106.18548 108.82092 112.53708 116.61348 119.7324 122.36784 129.69588 132.33131 137.1282 141.33733 143.97276 146.6082 151.3956 156.183">the Department prohibits discrimination </tspan></text>
<text
         id="text40"
         style="font-variant:normal;font-weight:normal;font-size:9.47999954px;font-family:'Times New Roman';-inkscape-font-specification:Times-Roman;writing-mode:lr-tb;fill:#000000;fill-opacity:1;fill-rule:nonzero;stroke:none"
         transform="matrix(1,0,0,-1,441.79,722.28)"><tspan
           id="tspan42"
           sodipodi:role="line"
           y="0"
           x="0 2.6354401 7.4323201 11.139 15.34812 20.12604 27.444599 30.08004 33.7962 37.50288 40.138321 44.9352 49.61832 53.325001 55.713959 59.420639 64.208038 67.326958 72.114357 76.67424 79.793159 84.002281 91.311363 95.018044 97.406998 101.11368 104.82036 109.02948 112.25268 116.9358 119.57124 123.78036 127.98948 131.6772 134.08511">in admissions, programs, services, </tspan></text>
<text
         id="text44"
         style="font-variant:normal;font-weight:normal;font-size:9.47999954px;font-family:'Times New Roman';-inkscape-font-specification:Times-Roman;writing-mode:lr-tb;fill:#000000;fill-opacity:1;fill-rule:nonzero;stroke:none"
         transform="matrix(1,0,0,-1,36,711.36)"><tspan
           id="tspan46"
           sodipodi:role="line"
           y="0"
           x="0 4.2091198 8.4182396 11.05368 13.68912 18.362761 20.998199 23.63364 26.269079 30.478201 34.194359 36.583321 39.69276 44.48016 47.599079 50.708519 55.021919 62.340481 67.127876 69.763321 74.673958 79.233841 86.666161 90.875282 95.653198 98.288643 101.40756 106.19496 110.40408 114.0918 118.30092 123.10728 126.21672 131.00412 135.79152 138.90096 142.01988 146.229 150.43813 154.64725 157.01724 160.12668 164.3358 169.11372 171.74916 176.54604 179.66496 182.05392 185.16336 188.28229 192.49139 195.12685 197.76228 202.4454 205.08084 209.87772 214.66512 217.05408 220.16351 223.87019 228.07932 232.75296 235.14192 238.3746 243.162 247.37112 250.00656 252.642 257.42941 262.2168 266.42593 269.06137 272.17081 276.95819 280.07712 282.71255 287.39569 290.03113 294.828 297.21695 300.32639 304.53552 309.20917 313.41827 315.78827 318.91669 323.70407 326.33951 330.05569 334.2648 339.04272 341.67816 344.3136 346.94904 349.71719 354.15384 356.66605 359.89871 364.58185 368.79095 373.56888 377.77802 380.41345 383.04889 387.258 390.94571 394.08359 398.29272 403.07065 407.85803 410.96747 414.0864 418.29553 420.93097 425.14008 427.77551 430.41095 434.62009 437.25552 439.89096 444.67838 449.46576 451.85471 455.0874 460.728">activities, or employment based on race, color, religion, sex, national origin, age, disability, genetics and retaliation. Th</tspan></text>
<text
         id="text48"
         style="font-variant:normal;font-weight:normal;font-size:9.47999954px;font-family:'Times New Roman';-inkscape-font-specification:Times-Roman;writing-mode:lr-tb;fill:#000000;fill-opacity:1;fill-rule:nonzero;stroke:none"
         transform="matrix(1,0,0,-1,502.18,711.36)"><tspan
           id="tspan50"
           sodipodi:role="line"
           y="0"
           x="0 4.2091198 7.3090801 14.25792 18.467039 23.244961 27.454081 30.56352 33.198959 40.527 44.736118 49.514042 52.149479 55.268398 62.58696 67.374359 71.081039 73.830238">e Department must </tspan></text>
<text
         id="text52"
         style="font-variant:normal;font-weight:normal;font-size:9.47999954px;font-family:'Times New Roman';-inkscape-font-specification:Times-Roman;writing-mode:lr-tb;fill:#000000;fill-opacity:1;fill-rule:nonzero;stroke:none"
         transform="matrix(1,0,0,-1,36,700.42)"><tspan
           id="tspan54"
           sodipodi:role="line"
           y="0"
           x="0 7.3185601 11.52768 16.201321 20.514721 22.903681 27.112801 29.4828 32.639641 36.934078 41.1432 44.830921 49.646759 54.434158 58.64328 63.4212 66.056641 70.265762 72.635757 76.844879 81.054001 85.263123 90.050522 97.36908 104.68764 109.47504 114.26244 118.47156 121.107 123.74244 128.52985 133.31725 135.70621 138.34164 143.13852 145.52748 149.7366 152.37204 155.00748 159.79488 166.63943 169.00945 173.21857 175.62648 180.41388 184.623 187.73244 191.43912 196.12224 200.90964 203.2986 210.14316 212.77859 215.41405 220.21092 222.59988 226.80901 229.179 233.99484 236.63028 240.23268 244.4418 249.21973 251.85516 254.4906 257.12604 259.8942 264.33084 266.71979 269.35526 274.15213 276.54108 279.17651 283.48993 288.17303 292.38217 294.75217 299.56799">make a reasonable accommodation to allow a person with a disability to take pa</tspan></text>
<text
         id="text56"
         style="font-variant:normal;font-weight:normal;font-size:9.47999954px;font-family:'Times New Roman';-inkscape-font-specification:Times-Roman;writing-mode:lr-tb;fill:#000000;fill-opacity:1;fill-rule:nonzero;stroke:none"
         transform="matrix(1,0,0,-1,340.13,700.42)"><tspan
           id="tspan58"
           sodipodi:role="line"
           y="0"
           x="0 3.1189201 5.7543602 8.1527996 10.78824 15.58512 17.974079 22.183201 24.5532 29.36904 32.487961 37.398602 42.081718 45.200642 49.514042 56.946362 59.33532 61.724281 65.430962 69.640083 72.749519 77.43264 80.068077 84.277199 88.48632 90.856323 95.662682 98.781601 101.2938 105.50292 109.71204 112.34748 114.98292 119.65656 122.292 125.16444 129.72432 132.11328 134.62547 139.66884 144.57948 147.69839 150.08736 154.40076 159.08388 163.293 170.60208 175.38948 178.13869 182.34779 184.7178 187.12572 189.76115 194.55804 197.19348 200.90964 203.2986 210.61716 214.82628 219.0354 223.80383 227.51051 229.89948 232.53493 235.66331">rt in a program, service or activity. For example, this means if </tspan></text>
<text
         id="text60"
         style="font-variant:normal;font-weight:normal;font-size:9.47999954px;font-family:'Times New Roman';-inkscape-font-specification:Times-Roman;writing-mode:lr-tb;fill:#000000;fill-opacity:1;fill-rule:nonzero;stroke:none"
         transform="matrix(1,0,0,-1,36,689.5)"><tspan
           id="tspan62"
           sodipodi:role="line"
           y="0"
           x="0 4.7873998 8.99652 13.20564 17.414761 21.10248 24.81864 29.02776 32.250961 36.810841 39.199799 42.669479 45.30492 50.101799 54.310921 57.771118 64.615677 68.824799 73.602722 77.811836 80.92128 83.556717 90.884758 95.09388 99.871803 102.50724 105.9864 113.30496 118.09236 121.79904 124.43448 127.91364 132.70103 135.81996 140.60736 145.29048 147.92592 152.72279 156.93192 160.39212 164.0988 166.73424 171.41736 176.20476 179.67444 182.30988 186.519 191.3064 195.98952 200.77692 204.98604 209.65968 213.8688 217.32899 219.96445 224.76132 227.39676 231.60588 234.72479 239.51221 242.63112 246.84024 249.47568 253.6848 256.79425 260.50092 263.97061 267.20328 271.99069 275.10959 278.57928 283.36667 287.57581 292.24945 297.03683 299.67227 303.88141 307.35107 314.19565 318.98303 323.77045 327.24011 331.44925 334.55869 338.76779 342.228 347.01541 351.22452 355.29144 358.52411 360.91309 364.25952 368.46863 371.92883 378.77341 383.56079 387.76993 391.97903 394.61447 398.82361 403.59204 407.80115 410.43661 413.55551 417.02521 421.23431 425.44345 429.65256 433.82376 437.53043 441.23712 443.87256 448.66943 451.30487 455.51401 458.98367 461.61911 466.41599 470.62512 474.83423 477.46967 480.10513 484.77875 489.56616 491.95511">necessary, the Department must provide sign language interpreters for people who are deaf, a wheelchair accessible location, </tspan></text>
<text
         id="text64"
         style="font-variant:normal;font-weight:normal;font-size:9.47999954px;font-family:'Times New Roman';-inkscape-font-specification:Times-Roman;writing-mode:lr-tb;fill:#000000;fill-opacity:1;fill-rule:nonzero;stroke:none"
         transform="matrix(1,0,0,-1,532.06,689.5)"><tspan
           id="tspan66"
           sodipodi:role="line"
           y="0"
           x="0 4.7873998 7.9063201 11.376 15.58512 20.363041 22.99848 27.2076 30.326521 35.00964 39.218761 43.996681">or enlarged </tspan></text>
<text
         id="text68"
         style="font-variant:normal;font-weight:normal;font-size:9.47999954px;font-family:'Times New Roman';-inkscape-font-specification:Times-Roman;writing-mode:lr-tb;fill:#000000;fill-opacity:1;fill-rule:nonzero;stroke:none"
         transform="matrix(1,0,0,-1,36,678.58)"><tspan
           id="tspan70"
           sodipodi:role="line"
           y="0"
           x="0 4.7873998 7.9063201 10.54176 15.33864 17.974079 21.566999 28.885559 33.094681 35.730122 39.93924 43.048679 45.68412 49.893242 52.528679 56.235359 58.624321 62.331001 65.326683 67.96212 71.555038 75.76416 78.399597 82.087318 86.90316 90.496078 97.814636 102.02376 106.23288 111.00132 114.708 118.30092 121.05012 125.83752 130.04665 132.68208 136.26552 138.90096 143.69785 147.90697 151.4904 158.33496 162.54408 167.32201 171.53111 174.64056 177.276 184.60403 188.81316 193.59108 196.22652 199.81944 206.664 209.29944">print materials. It also means that the Department wil</tspan></text>
<text
         id="text72"
         style="font-variant:normal;font-weight:normal;font-size:9.47999954px;font-family:'Times New Roman';-inkscape-font-specification:Times-Roman;writing-mode:lr-tb;fill:#000000;fill-opacity:1;fill-rule:nonzero;stroke:none"
         transform="matrix(1,0,0,-1,248.21,678.58)"><tspan
           id="tspan74"
           sodipodi:role="line"
           y="0"
           x="0 2.6354401 6.2283602 8.8638 13.07292 17.746559 21.955681 25.53912 29.85252 34.763161 39.199799 42.792721 47.58012 50.215561 55.01244 59.221561 62.331001 65.92392 69.042839 73.356239 77.565361 81.253082 86.068916 90.856323 95.065437 99.843361 102.4788 106.68792 110.27136 114.48048 118.6896 121.32504 123.96048 128.7384 133.5258 137.11871 139.6404 144.4278 148.63692 151.27235 154.8558 159.06493 161.70036 164.3358 169.1232 175.96776 179.65549 183.39059 187.82724 192.61464 197.40204 200.99496 203.6304 208.42728 212.0202 214.65564 218.86476 223.53841 227.74751 231.33096 236.11836 240.32748 243.43692 246.07236 249.66528 252.30072 257.0976 260.69052 264.89963 269.67755 274.46497 278.05789 282.84528 287.52841 292.3158 296.52493 299.63437 303.34103 305.97647 310.18561 314.97299 319.76041 323.35333 327.42972">l take any other reasonable action that allows you to take part in and understand a </tspan></text>
<text
         id="text76"
         style="font-variant:normal;font-weight:normal;font-size:9.47999954px;font-family:'Times New Roman';-inkscape-font-specification:Times-Roman;writing-mode:lr-tb;fill:#000000;fill-opacity:1;fill-rule:nonzero;stroke:none"
         transform="matrix(1,0,0,-1,36,667.54)"><tspan
           id="tspan78"
           sodipodi:role="line"
           y="0"
           x="0 4.7873998 7.9063201 12.69372 17.376841 20.49576 24.70488 32.013962 34.639919 39.427319 42.546242 45.172199 49.381321 53.590439 56.22588 58.965599 63.64872 66.284157 69.042839 73.602722 75.991676 78.617638 81.253082 86.049957 90.259079 92.894524 97.681923 102.46932 105.10476 109.90164 114.58476 117.21072 124.52928 128.7384 133.41203 136.04749 140.84436 145.52748 148.27669 151.3956 155.60472 159.81384 163.50156 168.30792 173.09532 177.30444 182.08237 184.7178 188.92693 191.55289 195.76199 200.53992 204.74904 209.52696 214.21008 218.4192 222.10692 224.76132 227.39676 232.19363 234.8196 238.896 243.6834 246.30936 250.51848 254.7276 257.36304 259.99847 264.67212 267.30756 270.06625 274.62613 277.01508 279.76428 282.75995 285.99265 288.74185 293.17847 297.96588 302.75327 305.37924 310.16663 314.37576 317.0112 319.64664 323.85577 328.52939 332.73853 335.36447 337.99991 342.79681 347.00592 349.64136 352.50433 357.18744 361.97485 366.76224 369.38821 376.23276 378.86819 381.50363 384.13907 386.77451 391.45764 396.24503 398.88049 401.51593 406.30331 410.51245 413.1384 417.34753 422.12543 424.76089 428.97 431.59595 434.11765 438.90503 441.53101 446.21411 451.00153 455.78891 459.99805 463.10748 466.81415 469.44958">program or activity, including making reasonable changes to an activity. If you believe that you will not be able to understa</tspan></text>
<text
         id="text80"
         style="font-variant:normal;font-weight:normal;font-size:9.47999954px;font-family:'Times New Roman';-inkscape-font-specification:Times-Roman;writing-mode:lr-tb;fill:#000000;fill-opacity:1;fill-rule:nonzero;stroke:none"
         transform="matrix(1,0,0,-1,510.34,667.54)"><tspan
           id="tspan82"
           sodipodi:role="line"
           y="0"
           x="0 4.6831198 9.47052 12.09648 16.883881 20.0028 22.628759 25.2642 29.47332 34.146961 38.356079 40.98204 45.76944 49.978561 53.088001 55.723438 58.358879 60.99432 65.677437">nd or take part in </tspan></text>
<text
         id="text84"
         style="font-variant:normal;font-weight:normal;font-size:9.47999954px;font-family:'Times New Roman';-inkscape-font-specification:Times-Roman;writing-mode:lr-tb;fill:#000000;fill-opacity:1;fill-rule:nonzero;stroke:none"
         transform="matrix(1,0,0,-1,36,656.62)"><tspan
           id="tspan86"
           sodipodi:role="line"
           y="0"
           x="0 4.2091198 7.6693201 12.45672 15.57564 20.363041 25.04616 28.165079 32.374199 39.683281 43.152962 47.940361 51.05928 54.528961 58.738079 62.947201 65.582642 68.322357 73.005478 75.640923 78.399597 82.95948 86.429161 91.21656 95.425682 99.634804 103.84392 108.60288">a program or activity becaus</tspan></text>
<text
         id="text88"
         style="font-variant:normal;font-weight:normal;font-size:9.47999954px;font-family:'Times New Roman';-inkscape-font-specification:Times-Roman;writing-mode:lr-tb;fill:#000000;fill-opacity:1;fill-rule:nonzero;stroke:none"
         transform="matrix(1,0,0,-1,148.46,656.62)"><tspan
           id="tspan90"
           sodipodi:role="line"
           y="0"
           x="0 4.2091198 7.7925601 12.57996 15.81264 19.28232 23.71896 28.506359 33.293758 36.412682 39.882359 44.669762 47.305199 51.021358 55.23048 60.0084 62.643841 65.279282 67.914719 70.682877 75.119522 77.508476 80.978157 85.765556 88.401001 92.610123 96.819237 100.50696 104.71608 108.19524 110.83068 115.0398 117.67524 121.14492 125.93232 129.63901 133.10867 137.79179 142.57919 147.36659 154.21117 157.68085 162.46825 165.58716 169.18008 173.61671 178.40411 183.19151 186.31044 189.78012 194.56752 197.20296 200.91911 205.12823 209.90616 212.5416 215.17703 217.81248 220.58064 225.01727 228.48695 233.27435 237.48347 241.6926 246.46104 250.16772 253.63741 256.27283 261.06973 264.5394 268.74854 273.52643 278.20956 282.41867 287.19659 291.40573 295.61484 299.06555 301.70099 304.93369 308.40335 312.61249 315.24792 318.71759 322.92673 325.56216 328.1976 331.54404 336.33145 341.11884 344.72125 348.42792 351.06335 355.86023 358.49567 362.7048 365.0748 368.44968 374.09027 378.87769 382.34735 385.46628 389.67542 394.45331 399.24072 403.44983 407.13757 409.77301 413.27112 415.90656 420.70343 423.33887 426.94128">e of your disability, please let us know of your disability needs in advance if at all possible. To request this </tspan></text>
<text
         id="text92"
         style="font-variant:normal;font-weight:normal;font-size:9.47999954px;font-family:'Times New Roman';-inkscape-font-specification:Times-Roman;writing-mode:lr-tb;fill:#000000;fill-opacity:1;fill-rule:nonzero;stroke:none"
         transform="matrix(1,0,0,-1,36,645.7)"><tspan
           id="tspan94"
           sodipodi:role="line"
           y="0"
           x="0 4.7873998 9.5747995 13.78392 18.56184 25.8804 30.08952 34.867439 37.50288 41.579281 44.214722 49.0116 53.078522 57.28764 59.92308 62.558521 66.767639 69.877083 74.664482 78.873596 81.509041 84.144478 88.827599 93.03672 97.094162 100.32684 105.11424 108.23316 115.55172 119.76084 122.39628 126.4632 131.2506 134.36952 138.43645 141.66911 146.45651 149.57544 153.64236 156.76128 161.54868 164.6676 167.30304 172.09991 176.30904 179.41849 183.4854 186.12083 190.91772 194.03664 198.82404 201.94296 209.26152 213.47064 216.10608 218.74152 223.52892 228.31631 232.38324 236.59236 241.26601 246.05341 250.84081 253.47624 257.55264 260.18808 264.98495 267.62039 271.33655 275.28973 280.07712 284.86453 287.49997 290.13541 294.34451 298.78116">document in alternative format or for further information about this policy,</tspan></text>
<text
         id="text96"
         style="font-variant:normal;font-weight:normal;font-size:9.47999954px;font-family:'Times New Roman';-inkscape-font-specification:Times-Roman;writing-mode:lr-tb;fill:#000000;fill-opacity:1;fill-rule:nonzero;stroke:none"
         transform="matrix(1,0,0,-1,341.71,645.7)"><tspan
           id="tspan98"
           sodipodi:role="line"
           y="0"
           x="0 4.2091198 8.9870396 13.77444 16.40988 20.618999 24.828119 27.46356 31.521 34.639919 39.427319 44.214722 49.002121 52.12104 56.187962 60.975361 65.762756">contact (602) 542</tspan></text>
<text
         id="text100"
         style="font-variant:normal;font-weight:normal;font-size:9.47999954px;font-family:'Times New Roman';-inkscape-font-specification:Times-Roman;writing-mode:lr-tb;fill:#000000;fill-opacity:1;fill-rule:nonzero;stroke:none"
         transform="matrix(1,0,0,-1,412.39,645.7)"><tspan
           id="tspan102"
           y="0"
           x="0">-</tspan></text>
<text
         id="text104"
         style="font-variant:normal;font-weight:normal;font-size:9.47999954px;font-family:'Times New Roman';-inkscape-font-specification:Times-Roman;writing-mode:lr-tb;fill:#000000;fill-opacity:1;fill-rule:nonzero;stroke:none"
         transform="matrix(1,0,0,-1,415.51,645.7)"><tspan
           id="tspan106"
           sodipodi:role="line"
           y="0"
           x="0 4.6831198 9.47052 14.15364 18.94104 21.576481 25.65288 31.416719 37.05732 43.901878 46.651081 52.414921 59.25948 66.104042 70.161484 75.432358 79.755241 82.874161 87.557281 90.192719 94.40184 98.610962 102.29868 105.06684 109.13376">3744; TTY/TDD Services: 7</tspan></text>
<text
         id="text108"
         style="font-variant:normal;font-weight:normal;font-size:9.47999954px;font-family:'Times New Roman';-inkscape-font-specification:Times-Roman;writing-mode:lr-tb;fill:#000000;fill-opacity:1;fill-rule:nonzero;stroke:none"
         transform="matrix(1,0,0,-1,529.54,645.7)"><tspan
           id="tspan110"
           y="0"
           x="0">-</tspan></text>
<text
         id="text112"
         style="font-variant:normal;font-weight:normal;font-size:9.47999954px;font-family:'Times New Roman';-inkscape-font-specification:Times-Roman;writing-mode:lr-tb;fill:#000000;fill-opacity:1;fill-rule:nonzero;stroke:none"
         transform="matrix(1,0,0,-1,532.66,645.7)"><tspan
           id="tspan114"
           y="0"
           x="0">1</tspan></text>
<text
         id="text116"
         style="font-variant:normal;font-weight:normal;font-size:9.47999954px;font-family:'Times New Roman';-inkscape-font-specification:Times-Roman;writing-mode:lr-tb;fill:#000000;fill-opacity:1;fill-rule:nonzero;stroke:none"
         transform="matrix(1,0,0,-1,537.46,645.7)"><tspan
           id="tspan118"
           y="0"
           x="0">-</tspan></text>
<text
         id="text120"
         style="font-variant:normal;font-weight:normal;font-size:9.47999954px;font-family:'Times New Roman';-inkscape-font-specification:Times-Roman;writing-mode:lr-tb;fill:#000000;fill-opacity:1;fill-rule:nonzero;stroke:none"
         transform="matrix(1,0,0,-1,540.58,645.7)"><tspan
           id="tspan122"
           sodipodi:role="line"
           y="0"
           x="0 4.8000002">1.</tspan></text>
<text
         id="text124"
         style="font-variant:normal;font-weight:normal;font-size:9.47999954px;font-family:'Times New Roman';-inkscape-font-specification:'Times New';writing-mode:lr-tb;fill:#000000;fill-opacity:1;fill-rule:nonzero;stroke:none"
         transform="matrix(1,0,0,-1,551.86,645.7)"><tspan
           id="tspan126"
           y="0"
           x="0">•</tspan></text>
<text
         id="text128"
         style="font-variant:normal;font-weight:normal;font-size:9.47999954px;font-family:'Times New Roman';-inkscape-font-specification:Times-Roman;writing-mode:lr-tb;fill:#000000;fill-opacity:1;fill-rule:nonzero;stroke:none"
         transform="matrix(1,0,0,-1,559.3,645.7)"><tspan
           id="tspan130"
           sodipodi:role="line"
           y="0"
           x="0 5.0433602 8.2760401 12.48516 16.78908">Free </tspan></text>
<text
         id="text132"
         style="font-variant:normal;font-weight:normal;font-size:9.47999954px;font-family:'Times New Roman';-inkscape-font-specification:Times-Roman;writing-mode:lr-tb;fill:#000000;fill-opacity:1;fill-rule:nonzero;stroke:none"
         transform="matrix(1,0,0,-1,36,634.78)"><tspan
           id="tspan134"
           sodipodi:role="line"
           y="0"
           x="0 2.6354401 6.8445601 11.63196 16.315081 21.10248 25.3116 29.985241 34.194359 36.564362">language a</tspan></text>
<text
         id="text136"
         style="font-variant:normal;font-weight:normal;font-size:9.47999954px;font-family:'Times New Roman';-inkscape-font-specification:Times-Roman;writing-mode:lr-tb;fill:#000000;fill-opacity:1;fill-rule:nonzero;stroke:none"
         transform="matrix(1,0,0,-1,76.824,634.78)"><tspan
           id="tspan138"
           sodipodi:role="line"
           y="0"
           x="0 3.7066801 7.4133601 10.0488 13.76496 16.4004 20.60952 25.396919 29.606039 33.815159 36.185162 39.427319 44.214722 47.333641 49.722599 56.567162 62.321522 67.5924 69.990837 73.697517 77.906639 81.016083 85.699203 88.334641 92.543762 96.752876 100.4406 102.84852 105.48396 109.20012 111.58908 115.7982 120.47184 124.68096 127.3164 129.95184 134.16096 138.93887 141.57433 145.78345 148.15344 152.96928 157.75668 162.54408 167.33148 169.72044 172.83936 177.04848 181.72212 186.50952 190.71864 194.40636 197.04179">ssistance for DES services is available upon request.</tspan></text>
</g></g></svg>